<svg xmlns="http://www.w3.org/2000/svg" viewBox="0 0 640 420" width="640" height="420">
  <defs>
    <linearGradient id="sky" x1="0" y1="0" x2="0" y2="1">
      <stop offset="0" stop-color="#d8e7e6"/><stop offset="1" stop-color="#eef0e6"/>
    </linearGradient>
  </defs>
  <rect width="640" height="420" fill="url(#sky)"/>
  <rect y="262" width="640" height="158" fill="#6a6a62"/>
  <g transform="translate(440,84) scale(0.8)" fill="#ffffff" opacity="0.7"><ellipse cx="0" cy="0" rx="34" ry="18"/><ellipse cx="30" cy="6" rx="26" ry="15"/><ellipse cx="-28" cy="6" rx="24" ry="14"/></g>
      <rect x="300" y="330" width="120" height="58" rx="6" fill="#46453d"/>
      <rect x="312" y="338" width="9" height="42" rx="3" fill="#2c2b26"/><rect x="334" y="338" width="9" height="42" rx="3" fill="#2c2b26"/><rect x="356" y="338" width="9" height="42" rx="3" fill="#2c2b26"/><rect x="378" y="338" width="9" height="42" rx="3" fill="#2c2b26"/><rect x="400" y="338" width="9" height="42" rx="3" fill="#2c2b26"/>
      <path d="M250 400q110 -8 220 0" stroke="#0f6e66" stroke-width="4" fill="none" opacity="0.5"/>
  <g transform="translate(556,40)"><circle r="30" fill="#1e9e6a"/><path d="M-13 0l9 9L16 -12" stroke="#fff" stroke-width="6" fill="none" stroke-linecap="round" stroke-linejoin="round"/></g>
</svg>