<svg xmlns="http://www.w3.org/2000/svg" viewBox="0 0 640 420" width="640" height="420">
  <defs>
    <linearGradient id="sky" x1="0" y1="0" x2="0" y2="1">
      <stop offset="0" stop-color="#d8e7e6"/><stop offset="1" stop-color="#eef0e6"/>
    </linearGradient>
  </defs>
  <rect width="640" height="420" fill="url(#sky)"/>
  <rect y="262" width="640" height="158" fill="#6a6a62"/>
  <g transform="translate(440,84) scale(0.8)" fill="#ffffff" opacity="0.7"><ellipse cx="0" cy="0" rx="34" ry="18"/><ellipse cx="30" cy="6" rx="26" ry="15"/><ellipse cx="-28" cy="6" rx="24" ry="14"/></g>
      <ellipse cx="360" cy="372" rx="190" ry="40" fill="#7c8a6f" opacity="0.7"/>
      <ellipse cx="360" cy="368" rx="150" ry="30" fill="#9bb07f" opacity="0.6"/>
      <g transform="translate(300,330)"><rect width="120" height="58" rx="6" fill="#3c3b35"/>
      <rect x="12" y="8" width="9" height="42" rx="3" fill="#22221e"/><rect x="34" y="8" width="9" height="42" rx="3" fill="#22221e"/><rect x="56" y="8" width="9" height="42" rx="3" fill="#22221e"/><rect x="78" y="8" width="9" height="42" rx="3" fill="#22221e"/><rect x="100" y="8" width="9" height="42" rx="3" fill="#22221e"/></g>
      <path d="M250 396q110 18 220 0" stroke="#6f8a5f" stroke-width="5" fill="none" opacity="0.7"/>
  
</svg>