<svg xmlns="http://www.w3.org/2000/svg" viewBox="0 0 640 420" width="640" height="420">
  <defs>
    <linearGradient id="sky" x1="0" y1="0" x2="0" y2="1">
      <stop offset="0" stop-color="#dfeaf0"/><stop offset="1" stop-color="#f3ece2"/>
    </linearGradient>
  </defs>
  <rect width="640" height="420" fill="url(#sky)"/>
  <rect y="262" width="640" height="158" fill="#5b5650"/>
  <g transform="translate(470,90) scale(0.9)" fill="#ffffff" opacity="0.7"><ellipse cx="0" cy="0" rx="34" ry="18"/><ellipse cx="30" cy="6" rx="26" ry="15"/><ellipse cx="-28" cy="6" rx="24" ry="14"/></g>
      <rect y="262" width="640" height="158" fill="#5b5650"/>
      <rect x="300" y="262" width="40" height="158" fill="#cfc6b6" opacity="0.5"/>
      <g><path d="M250 360c-10-26 30-46 70-40 36 6 70-4 78 18 8 22-28 40-78 40-44 0-60-2-70-18Z" fill="#211d18"/>
      <path d="M268 352c30-10 86-8 120 6" stroke="#3a342c" stroke-width="4" fill="none"/>
      <path d="M360 300l-8 40M440 312l-14 30" stroke="#6e675c" stroke-width="3"/></g>
  
</svg>